<svg xmlns="http://www.w3.org/2000/svg" viewBox="0 0 32 32" fill="none">
  <!-- ?? -->
  <rect width="32" height="32" rx="6" fill="url(#bg)"/>
  <!-- ?: ?? ???(??) -->
  <path d="M6 12v12c0 1 2.5 1.5 5 1.5V12c-2.5 0-5 .5-5 0Z" fill="#5dade2"/>
  <!-- ?: ??? ???(??) -->
  <path d="M26 12v12c0 1-2.5 1.5-5 1.5V12c2.5 0 5 .5 5 0Z" fill="#ff6b9d"/>
  <!-- ? ? -->
  <rect x="13" y="12" width="6" height="13" rx="1" fill="#e85584"/>
  <!-- ??? ? -->
  <path d="M16 5l1.2 2.4 2.6.4-1.9 1.9.4 2.6-2.3-1.2-2.3 1.2.4-2.6-1.9-1.9 2.6-.4L16 5z" fill="#fff" stroke="#2d3436" stroke-width=".6" stroke-linejoin="round"/>
  <defs>
    <linearGradient id="bg" x1="0" y1="0" x2="32" y2="32" gradientUnits="userSpaceOnUse">
      <stop stop-color="#fff9e6"/>
      <stop offset=".5" stop-color="#ffeef0"/>
      <stop offset="1" stop-color="#e8f4f8"/>
    </linearGradient>
  </defs>
</svg>
